<?xml version="1.0" encoding="UTF-8" standalone="no"?>
<svg
   fill="none"
   viewBox="0 0 10 16"
   version="1.1"
   id="svg1"
   sodipodi:docname="caret_right-dark.svg"
   inkscape:version="1.3.2 (091e20e, 2023-11-25, custom)"
   xmlns:inkscape="http://www.inkscape.org/namespaces/inkscape"
   xmlns:sodipodi="http://sodipodi.sourceforge.net/DTD/sodipodi-0.dtd"
   xmlns="http://www.w3.org/2000/svg"
   xmlns:svg="http://www.w3.org/2000/svg">
  <defs
     id="defs1" />
  <sodipodi:namedview
     id="namedview1"
     pagecolor="#ffffff"
     bordercolor="#000000"
     borderopacity="0.25"
     inkscape:showpageshadow="2"
     inkscape:pageopacity="0.0"
     inkscape:pagecheckerboard="0"
     inkscape:deskcolor="#d1d1d1"
     inkscape:zoom="50.375"
     inkscape:cx="4.9925558"
     inkscape:cy="8"
     inkscape:window-width="1920"
     inkscape:window-height="1002"
     inkscape:window-x="-8"
     inkscape:window-y="-8"
     inkscape:window-maximized="1"
     inkscape:current-layer="svg1" />
  <path
     stroke="currentColor"
     stroke-linecap="round"
     stroke-linejoin="round"
     stroke-width="2"
     d="m2.707 14.108 5.586-5.294a.923.923 0 0 0 .293-.67.923.923 0 0 0-.293-.67L2.707 2.18a1.018 1.018 0 0 0-.512-.26 1.051 1.051 0 0 0-.578.054.99.99 0 0 0-.448.35A.913.913 0 0 0 1 2.85v10.588c0 .187.059.37.169.526a.99.99 0 0 0 .448.35c.183.07.384.09.578.053a1.02 1.02 0 0 0 .512-.26Z"
     id="path1"
     style="stroke:#000000;stroke-opacity:1;stroke-width:2;stroke-dasharray:none" />
</svg>
