<?xml version="1.0" encoding="UTF-8" standalone="no"?>
<!-- Created with Inkscape (http://www.inkscape.org/) -->

<svg
   width="68.269974mm"
   height="68.269974mm"
   viewBox="0 0 68.269974 68.269974"
   version="1.1"
   id="svg1"
   inkscape:version="1.3.2 (091e20e, 2023-11-25, custom)"
   sodipodi:docname="epsa_wizard.svg"
   xmlns:inkscape="http://www.inkscape.org/namespaces/inkscape"
   xmlns:sodipodi="http://sodipodi.sourceforge.net/DTD/sodipodi-0.dtd"
   xmlns="http://www.w3.org/2000/svg"
   xmlns:svg="http://www.w3.org/2000/svg">
  <sodipodi:namedview
     id="namedview1"
     pagecolor="#ffffff"
     bordercolor="#000000"
     borderopacity="0.25"
     inkscape:showpageshadow="2"
     inkscape:pageopacity="0.0"
     inkscape:pagecheckerboard="0"
     inkscape:deskcolor="#d1d1d1"
     inkscape:document-units="mm"
     inkscape:zoom="2.87211"
     inkscape:cx="216.21735"
     inkscape:cy="131.61056"
     inkscape:window-width="1920"
     inkscape:window-height="1002"
     inkscape:window-x="-8"
     inkscape:window-y="-8"
     inkscape:window-maximized="1"
     inkscape:current-layer="layer1" />
  <defs
     id="defs1" />
  <g
     inkscape:label="Layer 1"
     inkscape:groupmode="layer"
     id="layer1"
     transform="translate(-268.75292,-149.68441)">
    <circle
       style="fill:#9e0eff;fill-opacity:1;stroke:#000000;stroke-width:0.365;stroke-dasharray:none;stroke-opacity:1"
       id="path3"
       cx="302.88791"
       cy="183.8194"
       r="34.102398" />
    <g
       id="g1"
       transform="matrix(0.52070233,-0.50105321,0.37912744,0.39481042,184.17258,177.463)"
       style="fill:#ffe50e;fill-opacity:1">
      <rect
         style="fill:#ffe50e;fill-opacity:1;stroke:#000000;stroke-width:0.159002;stroke-dasharray:none;stroke-opacity:1"
         id="rect1"
         width="58.220844"
         height="5.3430524"
         x="79.224564"
         y="156.07907"
         ry="1.2241733" />
      <rect
         style="fill:#ffe50e;fill-opacity:1;stroke:#000000;stroke-width:0.159002;stroke-dasharray:none;stroke-opacity:1"
         id="rect1-8"
         width="7.5539708"
         height="5.3430524"
         x="138.02791"
         y="156.07907"
         ry="1.2241733" />
    </g>
    <path
       sodipodi:type="star"
       style="fill:#ffe50e;fill-opacity:1;stroke:#000000;stroke-width:0.1;stroke-dasharray:none;stroke-opacity:1"
       id="path2"
       inkscape:flatsided="false"
       sodipodi:sides="10"
       sodipodi:cx="46.245037"
       sodipodi:cy="86.594292"
       sodipodi:r1="3.873491"
       sodipodi:r2="0.92963785"
       sodipodi:arg1="1.5232132"
       sodipodi:arg2="1.8373725"
       inkscape:rounded="0"
       inkscape:randomized="0"
       d="m 46.42928,90.463398 -0.429138,-2.972305 -1.880253,2.341667 1.399897,-2.656886 -2.897554,0.789263 2.694219,-1.326627 -2.808087,-1.064612 2.959441,0.510358 -1.646028,-2.511842 2.094257,2.152404 0.14476,-2.999633 0.429138,2.972305 1.880253,-2.341667 -1.399897,2.656886 2.897554,-0.789263 -2.694219,1.326627 2.808088,1.064613 -2.959441,-0.510359 1.646027,2.511842 -2.094257,-2.152404 z"
       inkscape:transform-center-x="0.033107245"
       inkscape:transform-center-y="0.12242328"
       transform="matrix(0.80748634,0,0,0.80748634,277.12904,93.287779)" />
    <path
       sodipodi:type="star"
       style="fill:#ffe50e;fill-opacity:1;stroke:#000000;stroke-width:0.1;stroke-dasharray:none;stroke-opacity:1"
       id="path2-76"
       inkscape:flatsided="false"
       sodipodi:sides="10"
       sodipodi:cx="46.245037"
       sodipodi:cy="86.594292"
       sodipodi:r1="3.873491"
       sodipodi:r2="0.92963785"
       sodipodi:arg1="1.5232132"
       sodipodi:arg2="1.8373725"
       inkscape:rounded="0"
       inkscape:randomized="0"
       d="m 46.42928,90.463398 -0.429138,-2.972305 -1.880253,2.341667 1.399897,-2.656886 -2.897554,0.789263 2.694219,-1.326627 -2.808087,-1.064612 2.959441,0.510358 -1.646028,-2.511842 2.094257,2.152404 0.14476,-2.999633 0.429138,2.972305 1.880253,-2.341667 -1.399897,2.656886 2.897554,-0.789263 -2.694219,1.326627 2.808088,1.064613 -2.959441,-0.510359 1.646027,2.511842 -2.094257,-2.152404 z"
       inkscape:transform-center-x="0.033107245"
       inkscape:transform-center-y="0.12242328"
       transform="matrix(0.80748634,0,0,0.80748634,284.5605,109.10512)" />
    <path
       sodipodi:type="star"
       style="fill:#ffe50e;fill-opacity:1;stroke:#000000;stroke-width:0.1;stroke-dasharray:none;stroke-opacity:1"
       id="path2-3"
       inkscape:flatsided="false"
       sodipodi:sides="10"
       sodipodi:cx="46.245037"
       sodipodi:cy="86.594292"
       sodipodi:r1="3.873491"
       sodipodi:r2="0.92963785"
       sodipodi:arg1="1.5232132"
       sodipodi:arg2="1.8373725"
       inkscape:rounded="0"
       inkscape:randomized="0"
       d="m 46.42928,90.463398 -0.429138,-2.972305 -1.880253,2.341667 1.399897,-2.656886 -2.897554,0.789263 2.694219,-1.326627 -2.808087,-1.064612 2.959441,0.510358 -1.646028,-2.511842 2.094257,2.152404 0.14476,-2.999633 0.429138,2.972305 1.880253,-2.341667 -1.399897,2.656886 2.897554,-0.789263 -2.694219,1.326627 2.808088,1.064613 -2.959441,-0.510359 1.646027,2.511842 -2.094257,-2.152404 z"
       inkscape:transform-center-x="0.033107245"
       inkscape:transform-center-y="0.12242328"
       transform="matrix(0.80748634,0,0,0.80748634,293.16534,118.45633)" />
    <path
       sodipodi:type="star"
       style="fill:#ffe50e;fill-opacity:1;stroke:#000000;stroke-width:0.1;stroke-dasharray:none;stroke-opacity:1"
       id="path2-38"
       inkscape:flatsided="false"
       sodipodi:sides="10"
       sodipodi:cx="46.245037"
       sodipodi:cy="86.594292"
       sodipodi:r1="3.873491"
       sodipodi:r2="0.92963785"
       sodipodi:arg1="1.5232132"
       sodipodi:arg2="1.8373725"
       inkscape:rounded="0"
       inkscape:randomized="0"
       d="m 46.42928,90.463398 -0.429138,-2.972305 -1.880253,2.341667 1.399897,-2.656886 -2.897554,0.789263 2.694219,-1.326627 -2.808087,-1.064612 2.959441,0.510358 -1.646028,-2.511842 2.094257,2.152404 0.14476,-2.999633 0.429138,2.972305 1.880253,-2.341667 -1.399897,2.656886 2.897554,-0.789263 -2.694219,1.326627 2.808088,1.064613 -2.959441,-0.510359 1.646027,2.511842 -2.094257,-2.152404 z"
       inkscape:transform-center-x="0.033107245"
       inkscape:transform-center-y="0.12242328"
       transform="matrix(0.80748634,0,0,0.80748634,293.77989,109.60179)" />
    <path
       sodipodi:type="star"
       style="fill:#ffe50e;fill-opacity:1;stroke:#000000;stroke-width:0.1;stroke-dasharray:none;stroke-opacity:1"
       id="path2-1"
       inkscape:flatsided="false"
       sodipodi:sides="10"
       sodipodi:cx="46.245037"
       sodipodi:cy="86.594292"
       sodipodi:r1="3.873491"
       sodipodi:r2="0.92963785"
       sodipodi:arg1="1.5232132"
       sodipodi:arg2="1.8373725"
       inkscape:rounded="0"
       inkscape:randomized="0"
       d="m 46.42928,90.463398 -0.429138,-2.972305 -1.880253,2.341667 1.399897,-2.656886 -2.897554,0.789263 2.694219,-1.326627 -2.808087,-1.064612 2.959441,0.510358 -1.646028,-2.511842 2.094257,2.152404 0.14476,-2.999633 0.429138,2.972305 1.880253,-2.341667 -1.399897,2.656886 2.897554,-0.789263 -2.694219,1.326627 2.808088,1.064613 -2.959441,-0.510359 1.646027,2.511842 -2.094257,-2.152404 z"
       inkscape:transform-center-x="0.033107245"
       inkscape:transform-center-y="0.12242328"
       transform="matrix(0.80748634,0,0,0.80748634,281.94954,118.69112)" />
    <path
       sodipodi:type="star"
       style="fill:#ffe50e;fill-opacity:1;stroke:#000000;stroke-width:0.1;stroke-dasharray:none;stroke-opacity:1"
       id="path2-7"
       inkscape:flatsided="false"
       sodipodi:sides="10"
       sodipodi:cx="46.245037"
       sodipodi:cy="86.594292"
       sodipodi:r1="3.873491"
       sodipodi:r2="0.92963785"
       sodipodi:arg1="1.5232132"
       sodipodi:arg2="1.8373725"
       inkscape:rounded="0"
       inkscape:randomized="0"
       d="m 46.42928,90.463398 -0.429138,-2.972305 -1.880253,2.341667 1.399897,-2.656886 -2.897554,0.789263 2.694219,-1.326627 -2.808087,-1.064612 2.959441,0.510358 -1.646028,-2.511842 2.094257,2.152404 0.14476,-2.999633 0.429138,2.972305 1.880253,-2.341667 -1.399897,2.656886 2.897554,-0.789263 -2.694219,1.326627 2.808088,1.064613 -2.959441,-0.510359 1.646027,2.511842 -2.094257,-2.152404 z"
       inkscape:transform-center-x="0.033107245"
       inkscape:transform-center-y="0.12242328"
       transform="matrix(0.80748634,0,0,0.80748634,289.86585,127.32274)" />
    <path
       sodipodi:type="star"
       style="fill:#ffe50e;fill-opacity:1;stroke:#000000;stroke-width:0.1;stroke-dasharray:none;stroke-opacity:1"
       id="path2-70"
       inkscape:flatsided="false"
       sodipodi:sides="10"
       sodipodi:cx="46.245037"
       sodipodi:cy="86.594292"
       sodipodi:r1="3.873491"
       sodipodi:r2="0.92963785"
       sodipodi:arg1="1.5232132"
       sodipodi:arg2="1.8373725"
       inkscape:rounded="0"
       inkscape:randomized="0"
       d="m 46.42928,90.463398 -0.429138,-2.972305 -1.880253,2.341667 1.399897,-2.656886 -2.897554,0.789263 2.694219,-1.326627 -2.808087,-1.064612 2.959441,0.510358 -1.646028,-2.511842 2.094257,2.152404 0.14476,-2.999633 0.429138,2.972305 1.880253,-2.341667 -1.399897,2.656886 2.897554,-0.789263 -2.694219,1.326627 2.808088,1.064613 -2.959441,-0.510359 1.646027,2.511842 -2.094257,-2.152404 z"
       inkscape:transform-center-x="0.033107245"
       inkscape:transform-center-y="0.12242328"
       transform="matrix(0.80748634,0,0,0.80748634,284.69433,91.796741)" />
    <path
       sodipodi:type="star"
       style="fill:#ffe50e;fill-opacity:1;stroke:#000000;stroke-width:0.1;stroke-dasharray:none;stroke-opacity:1"
       id="path2-70-3"
       inkscape:flatsided="false"
       sodipodi:sides="10"
       sodipodi:cx="46.245037"
       sodipodi:cy="86.594292"
       sodipodi:r1="3.873491"
       sodipodi:r2="0.92963785"
       sodipodi:arg1="1.5232132"
       sodipodi:arg2="1.8373725"
       inkscape:rounded="0"
       inkscape:randomized="0"
       d="m 46.42928,90.463398 -0.429138,-2.972305 -1.880253,2.341667 1.399897,-2.656886 -2.897554,0.789263 2.694219,-1.326627 -2.808087,-1.064612 2.959441,0.510358 -1.646028,-2.511842 2.094257,2.152404 0.14476,-2.999633 0.429138,2.972305 1.880253,-2.341667 -1.399897,2.656886 2.897554,-0.789263 -2.694219,1.326627 2.808088,1.064613 -2.959441,-0.510359 1.646027,2.511842 -2.094257,-2.152404 z"
       inkscape:transform-center-x="0.033107245"
       inkscape:transform-center-y="0.12242328"
       transform="matrix(0.80748634,0,0,0.80748634,289.27672,98.871484)" />
    <text
       xml:space="preserve"
       style="font-style:normal;font-variant:normal;font-weight:normal;font-stretch:normal;font-size:22.5778px;font-family:Harrington;-inkscape-font-specification:'Harrington, Normal';font-variant-ligatures:normal;font-variant-caps:normal;font-variant-numeric:normal;font-variant-east-asian:normal;fill:#ffffff;fill-opacity:1;stroke:#000000;stroke-width:0.365;stroke-dasharray:none;stroke-opacity:1"
       x="272.97894"
       y="189.90482"
       id="text1"><tspan
         sodipodi:role="line"
         id="tspan1"
         style="font-style:normal;font-variant:normal;font-weight:normal;font-stretch:normal;font-size:22.5778px;font-family:Harrington;-inkscape-font-specification:'Harrington, Normal';font-variant-ligatures:normal;font-variant-caps:normal;font-variant-numeric:normal;font-variant-east-asian:normal;fill:#ffffff;fill-opacity:1;stroke:#000000;stroke-width:0.365;stroke-dasharray:none;stroke-opacity:1"
         x="272.97894"
         y="189.90482">EPSA</tspan></text>
  </g>
</svg>
