<?xml version="1.0" encoding="UTF-8" standalone="no"?>
<svg
   fill="none"
   viewBox="0 0 18 20"
   version="1.1"
   id="svg1"
   sodipodi:docname="file_export-light.svg"
   inkscape:version="1.3.2 (091e20e, 2023-11-25, custom)"
   xmlns:inkscape="http://www.inkscape.org/namespaces/inkscape"
   xmlns:sodipodi="http://sodipodi.sourceforge.net/DTD/sodipodi-0.dtd"
   xmlns="http://www.w3.org/2000/svg"
   xmlns:svg="http://www.w3.org/2000/svg">
  <defs
     id="defs1" />
  <sodipodi:namedview
     id="namedview1"
     pagecolor="#ffffff"
     bordercolor="#000000"
     borderopacity="0.25"
     inkscape:showpageshadow="2"
     inkscape:pageopacity="0.0"
     inkscape:pagecheckerboard="0"
     inkscape:deskcolor="#d1d1d1"
     inkscape:zoom="40.3"
     inkscape:cx="8.9950372"
     inkscape:cy="10"
     inkscape:window-width="1920"
     inkscape:window-height="1002"
     inkscape:window-x="-8"
     inkscape:window-y="-8"
     inkscape:window-maximized="1"
     inkscape:current-layer="svg1" />
  <path
     stroke="currentColor"
     stroke-linecap="round"
     stroke-linejoin="round"
     stroke-width="2"
     d="M15 6V2a.97.97 0 0 0-.933-1H5.828a2 2 0 0 0-1.414.586L1.586 4.414A2 2 0 0 0 1 5.828V18a.969.969 0 0 0 .933 1H14a1 1 0 0 0 1-1M6 1v4a1 1 0 0 1-1 1H1m6 6h9m-1.939-2.768L16.828 12l-2.767 2.768"
     id="path1"
     style="stroke:#ffffff;stroke-opacity:1" />
</svg>
