<?xml version="1.0" encoding="UTF-8" standalone="no"?>
<svg
   fill="none"
   viewBox="0 0 20 20"
   version="1.1"
   id="svg1"
   sodipodi:docname="hsliders-light.svg"
   inkscape:version="1.3.2 (091e20e, 2023-11-25, custom)"
   xmlns:inkscape="http://www.inkscape.org/namespaces/inkscape"
   xmlns:sodipodi="http://sodipodi.sourceforge.net/DTD/sodipodi-0.dtd"
   xmlns="http://www.w3.org/2000/svg"
   xmlns:svg="http://www.w3.org/2000/svg">
  <defs
     id="defs1" />
  <sodipodi:namedview
     id="namedview1"
     pagecolor="#ffffff"
     bordercolor="#000000"
     borderopacity="0.25"
     inkscape:showpageshadow="2"
     inkscape:pageopacity="0.0"
     inkscape:pagecheckerboard="0"
     inkscape:deskcolor="#d1d1d1"
     inkscape:zoom="40.3"
     inkscape:cx="9.9875931"
     inkscape:cy="10"
     inkscape:window-width="1920"
     inkscape:window-height="1002"
     inkscape:window-x="-8"
     inkscape:window-y="-8"
     inkscape:window-maximized="1"
     inkscape:current-layer="svg1" />
  <path
     stroke="currentColor"
     stroke-linecap="round"
     stroke-linejoin="round"
     stroke-width="2"
     d="M7.75 4H19M7.75 4a2.25 2.25 0 0 1-4.5 0m4.5 0a2.25 2.25 0 0 0-4.5 0M1 4h2.25m13.5 6H19m-2.25 0a2.25 2.25 0 0 1-4.5 0m4.5 0a2.25 2.25 0 0 0-4.5 0M1 10h11.25m-4.5 6H19M7.75 16a2.25 2.25 0 0 1-4.5 0m4.5 0a2.25 2.25 0 0 0-4.5 0M1 16h2.25"
     id="path1"
     style="stroke:#ffffff;stroke-opacity:1" />
</svg>
