<?xml version="1.0" encoding="UTF-8" standalone="no"?>
<svg
   fill="none"
   viewBox="0 0 18 20"
   version="1.1"
   id="svg1"
   sodipodi:docname="rotate-light.svg"
   inkscape:version="1.3.2 (091e20e, 2023-11-25, custom)"
   xmlns:inkscape="http://www.inkscape.org/namespaces/inkscape"
   xmlns:sodipodi="http://sodipodi.sourceforge.net/DTD/sodipodi-0.dtd"
   xmlns="http://www.w3.org/2000/svg"
   xmlns:svg="http://www.w3.org/2000/svg">
  <defs
     id="defs1" />
  <sodipodi:namedview
     id="namedview1"
     pagecolor="#ffffff"
     bordercolor="#000000"
     borderopacity="0.25"
     inkscape:showpageshadow="2"
     inkscape:pageopacity="0.0"
     inkscape:pagecheckerboard="0"
     inkscape:deskcolor="#d1d1d1"
     inkscape:zoom="40.3"
     inkscape:cx="8.9950372"
     inkscape:cy="10"
     inkscape:window-width="1920"
     inkscape:window-height="1002"
     inkscape:window-x="-8"
     inkscape:window-y="-8"
     inkscape:window-maximized="1"
     inkscape:current-layer="svg1" />
  <path
     stroke="currentColor"
     stroke-linecap="round"
     stroke-linejoin="round"
     stroke-width="2"
     d="M16 1.81v4.74h-5M2 18.87v-4.738h5m10-3.791a7.33 7.33 0 0 1-1.658 4.623c-1.075 1.326-2.583 2.278-4.288 2.707a8.412 8.412 0 0 1-5.141-.333c-1.628-.645-2.985-1.783-3.86-3.235M1 10.34c0-1.672.582-3.298 1.658-4.624C3.733 4.391 5.24 3.44 6.946 3.01a8.413 8.413 0 0 1 5.141.333c1.628.645 2.985 1.782 3.86 3.234"
     id="path1"
     style="stroke:#ffffff;stroke-opacity:1" />
</svg>
